<svg xmlns="http://www.w3.org/2000/svg" viewBox="0 0 256 256" role="img" aria-label="WalkFlow icon">
  <defs>
    <linearGradient id="bg" x1="24" y1="20" x2="232" y2="236" gradientUnits="userSpaceOnUse">
      <stop offset="0" stop-color="#0EA5E9" />
      <stop offset="0.55" stop-color="#22C55E" />
      <stop offset="1" stop-color="#14B8A6" />
    </linearGradient>
    <linearGradient id="flow" x1="44" y1="62" x2="212" y2="194" gradientUnits="userSpaceOnUse">
      <stop offset="0" stop-color="#FFFFFF" stop-opacity="0.98" />
      <stop offset="1" stop-color="#E0F2FE" stop-opacity="0.9" />
    </linearGradient>
  </defs>

  <rect x="16" y="16" width="224" height="224" rx="52" fill="url(#bg)" />

  <path
    d="M44 154C63 120 81 101 103 98C123 95 134 114 154 113C175 112 190 96 212 62"
    fill="none"
    stroke="url(#flow)"
    stroke-width="18"
    stroke-linecap="round"
  />

  <path
    d="M58 178C76 151 91 136 111 134C126 132 138 144 155 144C173 144 186 134 202 116"
    fill="none"
    stroke="#DBF4FF"
    stroke-opacity="0.9"
    stroke-width="8"
    stroke-linecap="round"
  />

  <g fill="#ECFEFF" fill-opacity="0.97">
    <ellipse cx="78" cy="84" rx="12" ry="16" transform="rotate(-16 78 84)" />
    <ellipse cx="108" cy="70" rx="10" ry="14" transform="rotate(-16 108 70)" />
    <ellipse cx="138" cy="58" rx="9" ry="12" transform="rotate(-16 138 58)" />
  </g>

  <circle cx="198" cy="58" r="8" fill="#ECFEFF" fill-opacity="0.95" />
  <circle cx="214" cy="44" r="5" fill="#ECFEFF" fill-opacity="0.9" />
</svg>
